<?xml version="1.0" encoding="utf-8"?>
<!-- Generator: Adobe Illustrator 25.2.3, SVG Export Plug-In . SVG Version: 6.00 Build 0)  -->
<svg version="1.1" id="Layer_1" xmlns="http://www.w3.org/2000/svg" xmlns:xlink="http://www.w3.org/1999/xlink" x="0px" y="0px"
	 viewBox="0 0 42.34 42.34" style="enable-background:new 0 0 42.34 42.34;" xml:space="preserve">
<style type="text/css">
	.st0{fill:#FFFFFF;}
</style>
<g>
	<path class="st0" d="M31.17,1.17h-20c-5.5,0-10,4.5-10,10v20c0,5.5,4.5,10,10,10h20c5.5,0,10-4.5,10-10v-20
		C41.17,5.67,36.67,1.17,31.17,1.17z M37.83,31.17c0,3.67-2.99,6.67-6.67,6.67h-20c-3.68,0-6.67-2.99-6.67-6.67v-20
		c0-3.68,2.99-6.67,6.67-6.67h20c3.68,0,6.67,2.99,6.67,6.67V31.17z"/>
	<g>
		<path class="st0" d="M16.52,22.09h-2.68v-5.33h2.68v-1.45c0-2.51,0.64-4.35,1.83-5.54c1.19-1.19,2.94-1.79,5.24-1.79
			c2.04,0,3.41,0.26,4.6,0.64v5.37c-0.94-0.34-1.83-0.55-2.94-0.55c-1.49,0-2.34,0.77-2.34,2.47v0.89h5.24v5.28H23v17.3h-6.48V22.09
			z"/>
	</g>
</g>
</svg>
