<?xml version="1.0" encoding="utf-8"?>
<!-- Generator: Adobe Illustrator 25.2.3, SVG Export Plug-In . SVG Version: 6.00 Build 0)  -->
<svg version="1.1" id="Layer_1" xmlns="http://www.w3.org/2000/svg" xmlns:xlink="http://www.w3.org/1999/xlink" x="0px" y="0px"
	 viewBox="0 0 42.34 42.34" style="enable-background:new 0 0 42.34 42.34;" xml:space="preserve">
<style type="text/css">
	.st0{fill:#FFFFFF;}
</style>
<g>
	<path class="st0" d="M31.17,1.17h-20c-5.5,0-10,4.5-10,10v20c0,5.5,4.5,10,10,10h20c5.5,0,10-4.5,10-10v-20
		C41.17,5.67,36.67,1.17,31.17,1.17z M37.83,31.17c0,3.67-2.99,6.67-6.67,6.67h-20c-3.68,0-6.67-2.99-6.67-6.67v-20
		c0-3.68,2.99-6.67,6.67-6.67h20c3.68,0,6.67,2.99,6.67,6.67V31.17z"/>
	<circle class="st0" cx="32" cy="10.33" r="2.5"/>
	<path class="st0" d="M21.17,11.17c-5.52,0-10,4.48-10,10c0,5.52,4.48,10,10,10c5.52,0,10-4.48,10-10
		C31.17,15.64,26.69,11.17,21.17,11.17z M21.17,27.84c-3.68,0-6.67-2.99-6.67-6.67s2.99-6.67,6.67-6.67s6.67,2.98,6.67,6.67
		S24.85,27.84,21.17,27.84z"/>
</g>
</svg>
