<?xml version="1.0" encoding="utf-8"?>
<!-- Generator: Adobe Illustrator 25.2.3, SVG Export Plug-In . SVG Version: 6.00 Build 0)  -->
<svg version="1.1" id="Layer_1" xmlns="http://www.w3.org/2000/svg" xmlns:xlink="http://www.w3.org/1999/xlink" x="0px" y="0px"
	 viewBox="0 0 20.77 36.34" style="enable-background:new 0 0 20.77 36.34;" xml:space="preserve">
<g id="t2ZFlZ.tif">
	<g>
		<path d="M11.43,22.78c-1.88-2.31-3.77-4.63-5.63-6.91c0.71-0.8,1.45-1.56,2.1-2.39c0.9-1.15,1.65-2.41,1.64-3.93
			c0-0.61-0.11-1.28-0.39-1.81C8.55,6.59,7.81,5.5,7.12,4.39c-0.13-0.21-0.4-0.38-0.04-0.62c0.29-0.19,0.46-0.11,0.66,0.17
			c2.05,2.85,4.11,5.7,6.18,8.53c0.18,0.25,0.15,0.39-0.03,0.61c-1.12,1.4-2.2,2.82-2.92,4.48c-0.5,1.15-0.45,2.23,0.28,3.23
			c0.96,1.32,1.97,2.61,2.95,3.92c0.34,0.45,0.66,0.91,1.04,1.43c-0.69-0.19-1.29-0.44-1.9-0.5c-0.8-0.08-1.64-0.13-2.42,0.04
			c-1.8,0.39-2.54,1.8-2.01,3.57c0.33,1.11,1.01,2,1.79,2.82c0.13,0.13,0.3,0.22,0.47,0.33c-0.37,0.42-0.66,0.25-0.91,0.11
			c-1.37-0.74-2.5-1.76-3.49-2.96c-0.17-0.21-0.33-0.43-0.49-0.65c-1.65-2.22-0.43-5.85,2.19-6.48c0.82-0.2,1.62-0.04,2.39,0.28
			c0.15,0.06,0.3,0.13,0.46,0.19C11.36,22.86,11.39,22.82,11.43,22.78z"/>
	</g>
</g>
</svg>
