<?xml version="1.0" encoding="utf-8"?>
<!-- Generator: Adobe Illustrator 25.2.3, SVG Export Plug-In . SVG Version: 6.00 Build 0)  -->
<svg version="1.1" id="Layer_1" xmlns="http://www.w3.org/2000/svg" xmlns:xlink="http://www.w3.org/1999/xlink" x="0px" y="0px"
	 viewBox="0 0 20.77 36.34" style="enable-background:new 0 0 20.77 36.34;" xml:space="preserve">
<style type="text/css">
	.st0{fill:none;stroke:#000000;stroke-width:0.8205;stroke-linecap:round;stroke-linejoin:round;stroke-miterlimit:10;}
</style>
<g>
	<g id="XMLID_26_">
		<g>
			<path d="M11.4,27.68c0.53,1.76-0.94,3.78-3.3,4.5c-2.35,0.71-4.7-0.14-5.24-1.9c-0.53-1.76,0.94-3.78,3.3-4.5
				C8.51,25.06,10.86,25.91,11.4,27.68z"/>
		</g>
		<g>
			<path class="st0" d="M11.51,28.26V3.91c2.68,6.12,9.44,10.07,5.08,13.28"/>
			<path class="st0" d="M11.4,27.68c-0.54-1.77-2.89-2.62-5.24-1.9c-2.35,0.71-3.83,2.73-3.3,4.5c0.54,1.76,2.89,2.62,5.24,1.9
				C10.46,31.46,11.93,29.44,11.4,27.68z"/>
		</g>
	</g>
</g>
</svg>
