<?xml version="1.0" encoding="utf-8"?>
<!-- Generator: Adobe Illustrator 25.2.3, SVG Export Plug-In . SVG Version: 6.00 Build 0)  -->
<svg version="1.1" id="Layer_1" xmlns="http://www.w3.org/2000/svg" xmlns:xlink="http://www.w3.org/1999/xlink" x="0px" y="0px"
	 viewBox="0 0 492.73 99.09" style="enable-background:new 0 0 492.73 99.09;" xml:space="preserve">
<style type="text/css">
	.st0{fill:#FFFFFF;}
</style>
<g>
	<path class="st0" d="M94.28,49.77c0-22.72-19.11-41.31-42.86-41.31c-23.63,0-42.99,18.59-42.99,41.31s19.37,41.18,42.99,41.18
		C75.17,90.96,94.28,72.49,94.28,49.77 M99.18,49.77c0,25.3-21.3,45.96-47.77,45.96S3.52,75.08,3.52,49.77S24.95,3.81,51.42,3.81
		S99.18,24.47,99.18,49.77"/>
	<path class="st0" d="M150.84,59.45c17.82,0,30.08-7.61,30.08-26.08c0-12.91-6.97-24.66-26.98-24.66h-29.56v50.74H150.84z
		 M154.32,4.2c23.49,0,31.63,13.94,31.63,29.05c0,21.82-14.46,30.6-34.86,30.6h-26.72v31.37h-4.78V4.2H154.32z"/>
	<rect x="208.02" y="3.81" class="st0" width="96.69" height="4.39"/>
	<rect x="208.02" y="69.43" class="st0" width="96.69" height="4.39"/>
	<rect x="208.02" y="91.34" class="st0" width="96.69" height="4.39"/>
	<rect x="208.02" y="47.51" class="st0" width="96.69" height="4.39"/>
	<rect x="208.02" y="25.66" class="st0" width="96.69" height="4.39"/>
	<polygon class="st0" points="448.28,4.2 489.2,95.22 484.17,95.22 443.66,4.2 	"/>
	<path class="st0" d="M372.91,62.45c8.13,10.93,16.2,21.78,24.26,32.61c-0.07,0.22-0.23,0.14-0.35,0.14c-1.69,0.01-3.39,0-5.08,0.01
		c-0.36,0-0.57-0.11-0.79-0.4c-7.49-10.2-14.99-20.39-22.47-30.6c-0.4-0.54-0.77-0.72-1.46-0.65c-3.44,0.35-6.9,0.31-10.36,0.31
		c-7.67-0.01-15.34-0.01-23.01,0.01c-0.56,0-0.74-0.11-0.71-0.7c0.06-1.03,0.05-2.06,0-3.09c-0.02-0.54,0.15-0.63,0.65-0.63
		c8.45,0,16.89-0.03,25.34-0.04c4.34,0,8.63-0.35,12.84-1.48c3.98-1.07,7.65-2.76,10.7-5.6c3.54-3.29,5.65-7.36,6.56-12.08
		c0.99-5.18,0.98-10.34-0.52-15.42c-2.34-7.94-7.78-12.69-15.62-14.86c-3.33-0.92-6.75-1.2-10.19-1.21
		c-9.11-0.01-18.22,0-27.34-0.01c-0.66,0-1.33-0.05-1.99-0.04c-0.33,0.01-0.43-0.1-0.43-0.43c0.02-1.24,0.03-2.47,0-3.71
		c-0.01-0.53,0.32-0.39,0.59-0.39c3.85,0,7.69,0,11.54,0c6.04,0,12.09-0.01,18.13,0c4.99,0.01,9.91,0.55,14.62,2.33
		c9.04,3.42,14.38,9.98,16.25,19.39c1.21,6.09,1.02,12.18-0.73,18.14c-2.56,8.71-8.4,14.31-16.86,17.31
		C375.34,61.79,374.18,62.12,372.91,62.45"/>
</g>
</svg>
